<?xml version="1.0" encoding="UTF-8" standalone="no"?>
<!DOCTYPE svg PUBLIC "-//W3C//DTD SVG 1.1//EN" "http://www.w3.org/Graphics/SVG/1.1/DTD/svg11.dtd">
<svg width="100%" height="100%" viewBox="0 0 2134 2134" version="1.1" xmlns="http://www.w3.org/2000/svg" xmlns:xlink="http://www.w3.org/1999/xlink" xml:space="preserve" xmlns:serif="http://www.serif.com/" style="fill-rule:evenodd;clip-rule:evenodd;stroke-linejoin:round;stroke-miterlimit:2;">
    <g transform="matrix(3.14884,-0.854763,0.840657,3.09688,-8.8747,532.612)">
        <rect x="212.569" y="135.161" width="91.433" height="246.869" style="fill:rgb(61,43,31);"/>
    </g>
    <g transform="matrix(4.16667,0,0,4.16667,0,0)">
        <g transform="matrix(0.755721,-0.205143,0.201758,0.74325,-2.12993,127.827)">
            <path d="M227.076,346.266C244.951,364.141 256.003,388.828 256.003,416.098C201.452,416.098 157.233,371.879 157.233,317.339C184.503,317.339 209.201,328.391 227.076,346.266Z" style="fill:rgb(166,122,42);fill-rule:nonzero;"/>
        </g>
        <g transform="matrix(0.755721,-0.205143,0.201758,0.74325,-2.12993,127.827)">
            <path d="M227.076,269.177C244.951,287.052 256.003,311.739 256.003,339.009C201.452,339.009 157.233,294.79 157.233,240.25C184.503,240.25 209.201,251.302 227.076,269.177Z" style="fill:rgb(166,122,42);fill-rule:nonzero;"/>
        </g>
        <g transform="matrix(0.755721,-0.205143,0.201758,0.74325,-2.12993,127.827)">
            <path d="M227.076,192.088C244.951,209.963 256.003,234.65 256.003,261.92C201.452,261.92 157.233,217.701 157.233,163.161C184.503,163.161 209.201,174.212 227.076,192.088Z" style="fill:rgb(166,122,42);fill-rule:nonzero;"/>
        </g>
        <g transform="matrix(0.755721,-0.205143,0.201758,0.74325,-2.12993,127.827)">
            <path d="M240.448,131.605C250.288,146.966 256.003,165.229 256.003,184.83C201.452,184.83 157.233,140.611 157.233,86.071C184.503,86.071 209.201,97.123 227.076,114.998C232.105,120.027 236.597,125.593 240.448,131.605Z" style="fill:rgb(166,122,42);fill-rule:nonzero;"/>
        </g>
    </g>
    <g transform="matrix(4.16667,0,0,4.16667,0,0)">
        <g transform="matrix(0.755721,-0.205143,0.201758,0.74325,-2.12993,127.827)">
            <path d="M354.762,317.339C354.762,371.879 310.543,416.098 256.003,416.098C256.003,388.828 267.055,364.141 284.93,346.266C302.794,328.391 327.481,317.339 354.762,317.339Z" style="fill:rgb(198,148,58);fill-rule:nonzero;"/>
        </g>
        <g transform="matrix(0.755721,-0.205143,0.201758,0.74325,-2.12993,127.827)">
            <path d="M354.762,240.25C354.762,294.79 310.543,339.009 256.003,339.009C256.003,311.739 267.055,287.052 284.93,269.177C302.794,251.302 327.481,240.25 354.762,240.25Z" style="fill:rgb(198,148,58);fill-rule:nonzero;"/>
        </g>
        <g transform="matrix(0.755721,-0.205143,0.201758,0.74325,-2.12993,127.827)">
            <path d="M354.762,163.161C354.762,217.701 310.543,261.92 256.003,261.92C256.003,234.65 267.055,209.963 284.93,192.088C302.794,174.212 327.481,163.161 354.762,163.161Z" style="fill:rgb(198,148,58);fill-rule:nonzero;"/>
        </g>
        <g transform="matrix(0.755721,-0.205143,0.201758,0.74325,-2.12993,127.827)">
            <path d="M354.762,86.071C354.762,140.611 310.543,184.83 256.003,184.83C256.003,165.229 261.718,146.965 271.558,131.605C275.41,125.593 279.901,120.027 284.93,114.999C302.794,97.123 327.481,86.071 354.762,86.071Z" style="fill:rgb(198,148,58);fill-rule:nonzero;"/>
        </g>
        <g transform="matrix(0.755721,-0.205143,0.201758,0.74325,-2.12993,127.827)">
            <path d="M256.003,8.57C289.147,41.714 293.799,92.563 269.981,130.69C266.084,136.93 261.421,142.828 256.003,148.245C250.574,142.828 245.911,136.93 242.014,130.69C232.048,114.746 227.076,96.574 227.076,78.402C227.076,53.132 236.711,27.863 256.003,8.57Z" style="fill:rgb(198,148,58);fill-rule:nonzero;"/>
        </g>
    </g>
    <g transform="matrix(3.14884,-0.854763,0.840657,3.09688,-8.8747,532.612)">
        <path d="M354.761,154.586C348.835,154.586 343.021,155.076 337.353,156.006C353.535,137.207 363.332,112.763 363.332,86.07C363.332,81.336 359.494,77.498 354.76,77.498C331.217,77.498 309.425,85.122 291.711,98.025C292.888,91.619 293.496,85.06 293.496,78.407C293.496,49.737 282.331,22.784 262.058,2.511C258.71,-0.837 253.283,-0.837 249.936,2.511C229.663,22.783 218.499,49.737 218.499,78.407C218.499,85.06 219.108,91.619 220.284,98.025C202.57,85.123 180.778,77.498 157.235,77.498C152.501,77.498 148.663,81.336 148.663,86.07C148.663,112.754 158.453,137.191 174.628,155.988C168.931,155.066 163.12,154.587 157.235,154.587C152.501,154.587 148.663,158.425 148.663,163.159C148.663,189.851 158.46,214.296 174.643,233.095C168.975,232.166 163.162,231.676 157.235,231.676C152.501,231.676 148.663,235.514 148.663,240.248C148.663,266.94 158.46,291.385 174.643,310.184C168.975,309.255 163.161,308.765 157.235,308.765C152.501,308.765 148.663,312.603 148.663,317.337C148.663,373.636 192.233,419.946 247.425,424.327L247.425,503.429C247.425,508.163 251.263,512.001 255.997,512.001C260.731,512.001 264.569,508.163 264.569,503.429L264.569,424.327C319.76,419.945 363.33,373.634 363.33,317.337C363.33,312.603 359.492,308.765 354.758,308.765C348.831,308.765 343.018,309.255 337.35,310.184C353.534,291.385 363.329,266.94 363.329,240.248C363.329,235.514 359.491,231.676 354.757,231.676C348.831,231.676 343.017,232.166 337.349,233.095C353.531,214.296 363.328,189.851 363.328,163.159C363.333,158.424 359.495,154.586 354.761,154.586ZM255.999,347.581C261.926,347.581 267.739,347.091 273.408,346.162C266.261,354.464 260.362,363.866 255.999,374.078C251.638,363.866 245.737,354.465 238.59,346.162C244.259,347.09 250.073,347.581 255.999,347.581ZM255.999,296.988C251.638,286.776 245.738,277.375 238.591,269.072C244.259,270.001 250.072,270.491 255.999,270.491C261.925,270.491 267.739,270.001 273.407,269.072C266.261,277.374 260.36,286.777 255.999,296.988ZM256.03,219.832C251.756,209.802 245.934,200.423 238.679,191.999C244.319,192.918 250.104,193.404 256,193.404C261.926,193.404 267.74,192.914 273.408,191.985C266.277,200.267 260.387,209.646 256.03,219.832ZM265.019,175.811C269.264,133.268 303.199,99.333 345.742,95.088C341.496,137.632 307.561,171.568 265.019,175.811ZM256,21.32C269.185,37.388 276.355,57.347 276.355,78.407C276.355,99.467 269.184,119.426 256,135.495C242.815,119.426 235.645,99.467 235.645,78.407C235.645,57.347 242.814,37.388 256,21.32ZM246.98,175.811C204.437,171.566 170.502,137.631 166.257,95.088C208.8,99.334 242.735,133.269 246.98,175.811ZM246.98,252.901C204.437,248.656 170.502,214.721 166.257,172.178C208.8,176.423 242.735,210.357 246.98,252.901ZM246.98,329.989C204.437,325.744 170.502,291.809 166.257,249.266C208.8,253.511 242.735,287.446 246.98,329.989ZM166.257,326.356C208.8,330.601 242.735,364.536 246.98,407.079C204.436,402.833 170.501,368.898 166.257,326.356ZM265.019,407.078C269.264,364.535 303.199,330.6 345.742,326.355C341.496,368.898 307.561,402.833 265.019,407.078ZM265.019,329.989C269.264,287.446 303.199,253.511 345.742,249.266C341.496,291.81 307.561,325.744 265.019,329.989ZM265.014,252.902C267.054,232.219 276.097,213.037 290.988,198.146C305.879,183.256 325.059,174.213 345.743,172.172C341.501,214.723 307.563,248.661 265.014,252.902Z" style="fill:rgb(61,43,31);fill-rule:nonzero;"/>
    </g>
    <path d="M556.201,668.999L470.376,450.174" style="fill:none;stroke:rgb(61,43,31);stroke-width:49.19px;stroke-linecap:round;stroke-miterlimit:1.5;"/>
    <path d="M1180.03,492.051L1097.7,262.591" style="fill:none;stroke:rgb(61,43,31);stroke-width:49.19px;stroke-linecap:round;stroke-miterlimit:1.5;"/>
    <path d="M803.652,339.241L728.067,110.661" style="fill:none;stroke:rgb(61,43,31);stroke-width:49.19px;stroke-linecap:round;stroke-miterlimit:1.5;"/>
</svg>
