<?xml version="1.0" encoding="UTF-8" standalone="no"?>
<svg width="100%" height="100%" viewBox="-60 -585 3400 3400" version="1.1" xmlns="http://www.w3.org/2000/svg" style="fill-rule:evenodd;clip-rule:evenodd;stroke-linejoin:round;stroke-miterlimit:2;">
  <g transform="rotate(-25, 1642, 1115)">
    <g transform="matrix(1.16511,0,0,1.16511,1646.72,1265.13)">
        <g transform="matrix(1,0,0,1,-1066.66,-1066.66)">
            <g transform="matrix(4.16667,0,0,4.16667,0,0)">
                <g transform="matrix(0.302148,0,0,0.235841,55.3441,90.7904)">
                    <rect x="642" y="1477" width="36" height="271" style="fill:rgb(166,122,42);"/>
                </g>
                <g transform="matrix(0.0812566,0,0,0.341837,298.037,-436.286)">
                    <path d="M660.001,1477C669.941,1477 678,1478.92 678,1481.28C678,1513.05 678,1711.95 678,1743.72C678,1746.08 669.941,1748 660.001,1748C660,1748 660,1748 659.999,1748C650.059,1748 642,1746.08 642,1743.72C642,1711.95 642,1513.05 642,1481.28C642,1478.92 650.059,1477 659.999,1477C660,1477 660,1477 660.001,1477Z" style="fill:rgb(198,148,58);"/>
                </g>
                <g transform="matrix(0.0812566,0,0,0.341837,201.091,-502.713)">
                    <path d="M660.001,1477C669.941,1477 678,1478.92 678,1481.28C678,1513.05 678,1711.95 678,1743.72C678,1746.08 669.941,1748 660.001,1748C660,1748 660,1748 659.999,1748C650.059,1748 642,1746.08 642,1743.72C642,1711.95 642,1513.05 642,1481.28C642,1478.92 650.059,1477 659.999,1477C660,1477 660,1477 660.001,1477Z" style="fill:rgb(198,148,58);"/>
                </g>
                <g transform="matrix(0.0812566,0,0,0.341837,104.144,-436.286)">
                    <path d="M660.001,1477C669.941,1477 678,1478.92 678,1481.28C678,1513.05 678,1711.95 678,1743.72C678,1746.08 669.941,1748 660.001,1748C660,1748 660,1748 659.999,1748C650.059,1748 642,1746.08 642,1743.72C642,1711.95 642,1513.05 642,1481.28C642,1478.92 650.059,1477 659.999,1477C660,1477 660,1477 660.001,1477Z" style="fill:rgb(198,148,58);"/>
                </g>
                <g transform="matrix(0.997584,-0.00168552,0.00155454,0.920061,-0.909909,81.2395)">
                    <path d="M354.762,86.071C354.762,140.611 310.543,184.83 256.003,184.83C256.003,165.229 261.718,146.965 271.558,131.605C275.41,125.593 279.901,120.027 284.93,114.999C302.794,97.123 327.481,86.071 354.762,86.071Z" style="fill:rgb(198,148,58);fill-rule:nonzero;"/>
                </g>
                <g transform="matrix(0.997584,-0.00168552,0.00155454,0.920061,-0.909909,81.2395)">
                    <path d="M267.882,137.833L267.967,137.677C268.163,137.387 268.357,137.097 268.55,136.805C268.33,137.149 268.107,137.491 267.882,137.833Z" style="fill:rgb(198,148,58);fill-rule:nonzero;"/>
                </g>
                <g transform="matrix(0.997584,-0.00168552,0.00155454,0.920061,-0.909909,146.944)">
                    <path d="M354.762,86.071C354.762,140.611 310.543,184.83 256.003,184.83C256.003,165.229 261.718,146.965 271.558,131.605C275.41,125.593 279.901,120.027 284.93,114.999C302.794,97.123 327.481,86.071 354.762,86.071Z" style="fill:rgb(198,148,58);fill-rule:nonzero;"/>
                </g>
                <g transform="matrix(0.997584,-0.00168552,0.00155454,0.920061,-0.909895,146.944)">
                    <path d="M346.818,124.939C331.724,160.157 296.743,184.83 256.003,184.83C256.003,166.989 260.738,150.256 269.008,135.812C263.893,147.744 261.058,160.887 261.058,174.693C297.764,174.693 329.795,154.664 346.818,124.939Z" style="fill:rgb(166,122,42);fill-rule:nonzero;"/>
                </g>
                <g transform="matrix(0.997584,-0.00168552,0.00155454,0.920061,-0.909909,81.2395)">
                    <path d="M346.818,124.939C331.724,160.157 296.743,184.83 256.003,184.83C256.003,166.989 260.738,150.256 269.008,135.812C263.893,147.744 261.058,160.887 261.058,174.693C297.764,174.693 329.795,154.664 346.818,124.939Z" style="fill:rgb(166,122,42);fill-rule:nonzero;"/>
                </g>
                <g transform="matrix(0.997584,-0.00168552,0.00155454,0.920061,-0.909909,212.648)">
                    <path d="M354.762,86.071C354.762,140.611 310.543,184.83 256.003,184.83C256.003,165.229 261.718,146.965 271.558,131.605C275.41,125.593 279.901,120.027 284.93,114.999C302.794,97.123 327.481,86.071 354.762,86.071Z" style="fill:rgb(198,148,58);fill-rule:nonzero;"/>
                </g>
                <g transform="matrix(0.997584,-0.00168552,0.00155454,0.920061,-0.575207,212.648)">
                    <path d="M346.818,124.939C331.724,160.157 296.743,184.83 256.003,184.83C256.003,166.989 260.738,150.256 269.008,135.812C263.893,147.744 261.058,160.887 261.058,174.693C297.764,174.693 329.795,154.664 346.818,124.939Z" style="fill:rgb(166,122,42);fill-rule:nonzero;"/>
                </g>
                <g transform="matrix(0.997584,-0.00168552,0.00155454,0.920061,-0.909909,278.788)">
                    <path d="M354.762,86.071C354.762,140.611 310.543,184.83 256.003,184.83C256.003,165.229 261.718,146.965 271.558,131.605C275.41,125.593 279.901,120.027 284.93,114.999C302.794,97.123 327.481,86.071 354.762,86.071Z" style="fill:rgb(198,148,58);fill-rule:nonzero;"/>
                </g>
                <g transform="matrix(-0.997584,-0.00168552,-0.00155454,0.920061,510.434,81.2395)">
                    <path d="M354.762,86.071C354.762,140.611 310.543,184.83 256.003,184.83C256.003,165.229 261.718,146.965 271.558,131.605C275.41,125.593 279.901,120.027 284.93,114.999C302.794,97.123 327.481,86.071 354.762,86.071Z" style="fill:rgb(198,148,58);fill-rule:nonzero;"/>
                </g>
                <g transform="matrix(0.997584,-0.00168552,0.00155454,0.920061,-0.909895,278.788)">
                    <path d="M346.818,124.939C331.724,160.157 296.743,184.83 256.003,184.83C256.003,166.989 260.738,150.256 269.008,135.812C263.893,147.744 261.058,160.887 261.058,174.693C297.764,174.693 329.795,154.664 346.818,124.939Z" style="fill:rgb(166,122,42);fill-rule:nonzero;"/>
                </g>
                <g transform="matrix(-0.997584,-0.00168552,-0.00155454,0.920061,510.434,146.944)">
                    <path d="M354.762,86.071C354.762,140.611 310.543,184.83 256.003,184.83C256.003,165.229 261.718,146.965 271.558,131.605C275.41,125.593 279.901,120.027 284.93,114.999C302.794,97.123 327.481,86.071 354.762,86.071Z" style="fill:rgb(198,148,58);fill-rule:nonzero;"/>
                </g>
                <g transform="matrix(-0.997584,-0.00168552,-0.00155454,0.920061,510.434,212.648)">
                    <path d="M354.762,86.071C354.762,140.611 310.543,184.83 256.003,184.83C256.003,165.229 261.718,146.965 271.558,131.605C275.41,125.593 279.901,120.027 284.93,114.999C302.794,97.123 327.481,86.071 354.762,86.071Z" style="fill:rgb(198,148,58);fill-rule:nonzero;"/>
                </g>
                <g transform="matrix(-0.997584,-0.00168552,-0.00155454,0.920061,510.434,278.788)">
                    <path d="M354.762,86.071C354.762,140.611 310.543,184.83 256.003,184.83C256.003,165.229 261.718,146.965 271.558,131.605C275.41,125.593 279.901,120.027 284.93,114.999C302.794,97.123 327.481,86.071 354.762,86.071Z" style="fill:rgb(198,148,58);fill-rule:nonzero;"/>
                </g>
                <g transform="matrix(-0.997584,-0.00168552,-0.00155454,0.920061,510.434,81.2395)">
                    <path d="M354.232,86.072C349.032,135.531 307.322,174.118 256.549,174.384C256.188,177.817 256.003,181.302 256.003,184.83C310.543,184.83 354.762,140.611 354.762,86.071C354.585,86.071 354.409,86.071 354.232,86.072Z" style="fill:rgb(166,122,42);fill-rule:nonzero;"/>
                </g>
                <g transform="matrix(-0.997584,-0.00168552,-0.00155454,0.920061,510.434,146.944)">
                    <path d="M354.232,86.072C349.032,135.531 307.322,174.118 256.549,174.384C256.188,177.817 256.003,181.302 256.003,184.83C310.543,184.83 354.762,140.611 354.762,86.071C354.585,86.071 354.409,86.071 354.232,86.072Z" style="fill:rgb(166,122,42);fill-rule:nonzero;"/>
                </g>
                <g transform="matrix(-0.997584,-0.00168552,-0.00155454,0.920061,510.434,212.648)">
                    <path d="M354.232,86.072C349.032,135.531 307.322,174.118 256.549,174.384C256.188,177.817 256.003,181.302 256.003,184.83C310.543,184.83 354.762,140.611 354.762,86.071C354.585,86.071 354.409,86.071 354.232,86.072Z" style="fill:rgb(166,122,42);fill-rule:nonzero;"/>
                </g>
                <g transform="matrix(-0.997584,-0.00168552,-0.00155454,0.920061,510.434,279.074)">
                    <path d="M354.232,86.072C349.032,135.531 307.322,174.118 256.549,174.384C256.188,177.817 256.003,181.302 256.003,184.83C310.543,184.83 354.762,140.611 354.762,86.071C354.585,86.071 354.409,86.071 354.232,86.072Z" style="fill:rgb(166,122,42);fill-rule:nonzero;"/>
                </g>
                <g transform="matrix(0.993935,-0.00167935,0.00156022,0.923423,0.192159,84.2071)">
                    <path d="M256.003,8.57C289.147,41.714 293.799,92.563 269.981,130.69C266.084,136.93 261.421,142.828 256.003,148.245C250.574,142.828 245.911,136.93 242.014,130.69C232.048,114.746 227.076,96.574 227.076,78.402C227.076,53.132 236.711,27.863 256.003,8.57Z" style="fill:rgb(198,148,58);fill-rule:nonzero;"/>
                </g>
                <g transform="matrix(0.993935,-0.00167935,0.00156022,0.923423,-0.565328,85.2843)">
                    <path d="M278.239,114.198C276.032,119.885 273.28,125.41 269.981,130.69C266.084,136.93 261.421,142.828 256.003,148.245C250.574,142.828 245.911,136.93 242.014,130.69C232.048,114.746 227.076,96.574 227.076,78.402C227.076,60.161 232.096,41.921 242.145,25.929C237.692,37.409 235.467,49.553 235.467,61.697C235.467,79.869 240.439,98.041 250.405,113.985C254.302,120.225 258.965,126.123 264.394,131.54C269.75,126.185 274.369,120.359 278.239,114.198Z" style="fill:rgb(166,122,42);fill-rule:nonzero;"/>
                </g>
                <g transform="matrix(0.993935,-0.00167935,0.00156022,0.923423,-0.565328,85.2843)">
                    <path d="M268.526,132.95L268.611,132.795C268.808,132.506 269.003,132.217 269.196,131.926C268.975,132.269 268.752,132.61 268.526,132.95Z" style="fill:rgb(198,148,58);fill-rule:nonzero;"/>
                </g>
                <g transform="matrix(0.359061,0,0,0.359061,-243.41,45.9555)">
                    <path d="M1260.47,907.751C1298.42,926.139 1341.6,936.576 1387.43,936.653C1433.26,936.576 1476.44,926.139 1514.39,907.751C1497.39,917.765 1481.67,929.46 1467.5,942.582C1453.55,955.489 1441.09,969.773 1430.42,985.196C1403.29,1024.39 1387.51,1070.93 1387.43,1120.86C1387.41,1112.09 1386.92,1103.42 1385.96,1094.88C1381.45,1054.81 1366.81,1017.51 1344.44,985.196C1333.77,969.773 1321.31,955.489 1307.36,942.582C1293.19,929.46 1277.47,917.765 1260.47,907.751ZM1502.39,730.233C1489.94,738.45 1478.27,747.603 1467.5,757.582C1453.55,770.489 1441.09,784.773 1430.42,800.196C1403.29,839.392 1387.51,885.932 1387.43,935.857C1387.41,927.088 1386.92,918.423 1385.96,909.885C1381.45,869.81 1366.81,832.508 1344.44,800.196C1333.77,784.773 1321.31,770.489 1307.36,757.582C1296.59,747.603 1284.91,738.45 1272.46,730.233C1307.42,745.207 1346.36,753.595 1387.43,753.665C1428.5,753.595 1467.44,745.207 1502.39,730.233ZM1272.46,547.245C1307.42,562.219 1346.36,570.607 1387.43,570.676C1428.5,570.607 1467.44,562.219 1502.39,547.245C1489.94,555.461 1478.27,564.615 1467.5,574.593C1453.55,587.5 1441.09,601.784 1430.42,617.207C1403.29,656.404 1387.51,702.944 1387.43,752.868C1387.41,744.099 1386.92,735.435 1385.96,726.896C1381.45,686.821 1366.81,649.519 1344.44,617.207C1333.77,601.784 1321.31,587.5 1307.36,574.593C1296.59,564.615 1284.91,555.461 1272.46,547.245ZM1420.23,450.194L1420.46,449.794C1421.01,449.051 1421.55,448.306 1422.08,447.558C1421.47,448.44 1420.85,449.318 1420.23,450.194ZM1420.23,450.194C1399.38,485.821 1387.5,526.577 1387.43,569.88C1387.41,561.111 1386.92,552.446 1385.96,543.908C1382.87,516.441 1375.02,490.277 1363.18,466.13C1370.05,474.271 1377.54,482.109 1385.63,489.588C1398.79,477.328 1410.33,464.116 1420.23,450.194Z" style="fill:rgb(198,148,58);"/>
                </g>
            </g>
        </g>
    </g>
  </g>
</svg>
