<svg width="334" height="281" viewBox="0 0 334 281" fill="none" xmlns="http://www.w3.org/2000/svg">
<path d="M177.882 52.7691C177.596 52.8008 176.825 52.9089 176.543 52.9632C176.26 53.0175 175.488 53.1843 175.21 53.2608C174.933 53.3374 174.155 53.5638 173.885 53.6621C173.614 53.7604 172.883 54.0957 172.621 54.2152C172.359 54.3346 171.613 54.6802 171.362 54.8201C171.11 54.9599 170.452 55.3622 170.212 55.5216C169.973 55.6809 169.296 56.1487 169.07 56.3266C168.844 56.5045 168.25 57.033 168.038 57.2283L105.851 114.885C105.55 115.162 104.759 116.019 104.491 116.329C104.224 116.638 103.525 117.528 103.294 117.866C103.063 118.203 102.454 119.186 102.263 119.547C102.071 119.909 101.595 120.939 101.446 121.319C101.296 121.699 100.948 122.785 100.842 123.18C100.737 123.575 100.511 124.675 100.45 125.079C100.389 125.484 100.283 126.608 100.268 127.016C100.253 127.425 100.266 128.583 100.297 128.991C100.327 129.399 100.456 130.55 100.533 130.952C100.61 131.353 100.902 132.453 101.024 132.843C101.146 133.234 101.554 134.295 101.719 134.669C101.884 135.043 102.412 136.076 102.618 136.43C102.823 136.783 103.469 137.693 103.713 138.021C103.957 138.348 104.68 139.251 104.96 139.549C105.24 139.847 106.041 140.647 106.352 140.912C106.664 141.177 107.598 141.826 107.937 142.054L152.949 172.476L148.64 232.171L148.647 232.275C148.608 232.684 148.554 233.602 148.552 233.946C148.549 234.311 148.581 235.295 148.615 235.658C148.649 236.022 148.818 237.051 148.888 237.409C148.959 237.767 149.208 238.747 149.314 239.096C149.42 239.446 149.751 240.385 149.891 240.722C150.032 241.059 150.503 242.013 150.676 242.334C150.85 242.655 151.349 243.482 151.554 243.784C151.759 244.086 152.353 244.943 152.587 245.223C152.821 245.503 153.556 246.238 153.817 246.492C154.078 246.747 154.806 247.428 155.091 247.655C155.377 247.883 156.204 248.455 156.511 248.652C156.818 248.85 157.702 249.373 158.027 249.539C158.352 249.704 159.296 250.13 159.636 250.263C159.976 250.395 160.932 250.679 161.283 250.776C161.635 250.874 162.616 251.121 162.975 251.183C163.335 251.244 164.393 251.35 164.757 251.375C165.121 251.4 166.111 251.427 166.476 251.415C166.841 251.404 167.871 251.293 168.233 251.245C168.595 251.197 169.577 251.059 169.932 250.975C170.287 250.891 171.268 250.565 171.613 250.446C171.957 250.327 172.904 249.97 173.235 249.817C173.566 249.663 174.477 249.169 174.791 248.984C175.105 248.798 175.944 248.271 176.237 248.054C176.531 247.838 177.347 247.166 177.618 246.921C177.888 246.676 178.591 245.965 178.836 245.695C179.08 245.424 179.724 244.614 179.94 244.32C180.156 244.026 180.699 243.218 180.885 242.904C181.071 242.59 181.563 241.671 181.716 241.339C181.869 241.008 182.217 240.082 182.337 239.737C182.456 239.392 182.763 238.393 182.847 238.038C182.93 237.683 183.098 236.663 183.146 236.302C183.19 235.972 183.279 235.159 183.3 234.731C183.303 234.689 183.289 234.608 183.29 234.575L188.284 164.951C188.318 164.478 188.314 163.135 188.286 162.662C188.258 162.189 188.119 160.856 188.029 160.391C187.94 159.925 187.563 158.645 187.414 158.195C187.264 157.745 186.805 156.544 186.598 156.117C186.391 155.691 185.735 154.508 185.474 154.112C185.214 153.716 184.416 152.69 184.106 152.331C183.796 151.973 182.844 151.038 182.49 150.724C182.135 150.409 181.072 149.603 180.68 149.337L145.478 125.589L180.584 93.0067L218.727 124.15C218.96 124.34 219.629 124.839 219.877 125.009C220.125 125.179 220.862 125.609 221.124 125.758C221.385 125.906 222.142 126.272 222.415 126.399C222.688 126.525 223.473 126.882 223.755 126.985C224.037 127.088 224.795 127.336 225.085 127.416C225.374 127.496 226.215 127.681 226.511 127.736C226.806 127.791 227.63 127.922 227.93 127.953C228.229 127.983 229.089 128.005 229.39 128.011L264.497 128.719L264.653 128.709C265.081 128.727 265.935 128.77 266.268 128.756C266.634 128.742 267.611 128.641 267.974 128.59C268.336 128.538 269.365 128.352 269.72 128.264C270.076 128.176 271.057 127.858 271.401 127.735C271.746 127.612 272.69 127.211 273.02 127.054C273.351 126.897 274.264 126.41 274.577 126.221C274.89 126.031 275.727 125.46 276.019 125.24C276.312 125.019 277.079 124.358 277.348 124.11C277.616 123.861 278.324 123.158 278.566 122.884C278.808 122.609 279.456 121.806 279.67 121.509C279.883 121.212 280.429 120.358 280.611 120.041C280.794 119.724 281.241 118.814 281.391 118.48C281.54 118.146 281.945 117.17 282.06 116.823C282.175 116.475 282.442 115.536 282.521 115.179C282.601 114.822 282.778 113.806 282.821 113.442C282.864 113.079 282.903 112.034 282.909 111.668C282.916 111.302 282.877 110.32 282.846 109.955C282.815 109.591 282.691 108.561 282.624 108.202C282.557 107.842 282.353 106.861 282.251 106.51C282.148 106.159 281.807 105.172 281.67 104.833C281.532 104.494 281.06 103.596 280.888 103.273C280.717 102.949 280.207 102.024 280.004 101.72C279.801 101.415 279.207 100.615 278.974 100.332C278.742 100.05 278.056 99.3168 277.796 99.0592C277.536 98.8015 276.754 98.1301 276.47 97.8999C276.185 97.6697 275.353 97.0516 275.047 96.8512C274.741 96.6507 273.855 96.1333 273.531 95.9648C273.206 95.7962 272.313 95.3722 271.973 95.2372C271.633 95.1022 270.674 94.772 270.323 94.6719C269.971 94.5719 268.939 94.3331 268.579 94.269C268.219 94.2048 267.214 94.1007 266.849 94.0732C266.506 94.0473 265.647 94.0208 265.234 94.0258L265.13 94.0328L236.116 93.4348L190.823 56.53C190.543 56.3019 189.704 55.7323 189.403 55.5331C189.102 55.3338 188.258 54.8115 187.939 54.6432C187.62 54.4749 186.716 54.0514 186.382 53.9156C186.047 53.7799 185.077 53.4522 184.731 53.3504C184.385 53.2485 183.394 53.0109 183.039 52.9439C182.684 52.877 181.717 52.7242 181.358 52.6929C180.998 52.6615 179.947 52.6513 179.586 52.6559C179.226 52.6605 178.236 52.7304 177.878 52.7708L177.882 52.7691Z" fill="#81E54D"/>
<path d="M250 29.984C250 46.186 236.866 59.32 220.664 59.32C204.462 59.32 191.328 46.186 191.328 29.984C191.328 13.782 204.462 0.64801 220.664 0.64801C236.866 0.64801 250 13.782 250 29.984ZM264.729 142.004C226.656 142.004 195.664 172.996 195.664 211.069C195.664 249.142 226.656 280.134 264.729 280.134C302.802 280.134 333.794 249.142 333.794 211.069C333.794 172.996 302.802 142.004 264.729 142.004ZM264.729 155.721C295.394 155.721 320.158 180.404 320.158 211.069C320.158 241.734 295.395 266.417 264.729 266.417C234.064 266.417 209.381 241.734 209.381 211.069C209.381 180.404 234.064 155.721 264.729 155.721ZM69.949 142.001C31.876 142.001 0.884003 172.993 0.884003 211.066C0.884003 249.139 31.876 280.131 69.949 280.131C108.022 280.131 139.014 249.139 139.014 211.066C139.014 172.993 108.022 142.001 69.949 142.001ZM69.949 155.718C100.614 155.718 125.378 180.401 125.378 211.066C125.378 241.731 100.615 266.414 69.949 266.414C39.284 266.414 14.601 241.731 14.601 211.066C14.601 180.401 39.284 155.718 69.949 155.718Z" fill="#666666"/>
</svg>
