<svg width="32" height="33" viewBox="0 0 32 33" fill="none" xmlns="http://www.w3.org/2000/svg">
    <path d="M26.3773 16.2087C26.1586 15.4274 25.912 14.6007 25.6373 13.7114C24.8239 11.469 24.2744 9.13951 24 6.77002C24 6.4164 24.1404 6.07726 24.3905 5.82721C24.6405 5.57716 24.9797 5.43669 25.3333 5.43669C25.6869 5.43669 26.026 5.57716 26.2761 5.82721C26.5261 6.07726 26.6666 6.4164 26.6666 6.77002C26.6666 7.12364 26.8071 7.46278 27.0571 7.71283C27.3072 7.96288 27.6463 8.10335 28 8.10335C28.3536 8.10335 28.6927 7.96288 28.9428 7.71283C29.1928 7.46278 29.3333 7.12364 29.3333 6.77002C29.3333 5.70915 28.9119 4.69174 28.1617 3.94159C27.4116 3.19145 26.3941 2.77002 25.3333 2.77002C24.2724 2.77002 23.255 3.19145 22.5049 3.94159C21.7547 4.69174 21.3333 5.70915 21.3333 6.77002C21.3663 7.78815 21.5089 8.79976 21.7586 9.78735L15.3586 14.77L7.96128 9.43669H11.9999C12.3536 9.43669 12.6927 9.29621 12.9428 9.04616C13.1928 8.79611 13.3333 8.45697 13.3333 8.10335C13.3333 7.74973 13.1928 7.41059 12.9428 7.16054C12.6927 6.9105 12.3536 6.77002 11.9999 6.77002H7.96128C7.40737 6.76985 6.8676 6.94489 6.41919 7.27008C5.97079 7.59528 5.63673 8.05396 5.46481 8.58052C5.29289 9.10708 5.29192 9.67452 5.46204 10.2017C5.63216 10.7288 5.96466 11.1886 6.41195 11.5154L13.1733 16.4647L11.2559 17.9567C10.065 16.8354 8.50036 16.1959 6.86497 16.162C5.22958 16.1281 3.63978 16.7022 2.40337 17.7731C1.16696 18.8441 0.371908 20.3357 0.172141 21.9592C-0.0276249 23.5827 0.382108 25.2226 1.32201 26.5613C2.26191 27.9001 3.66512 28.8425 5.25994 29.206C6.85477 29.5696 8.52777 29.3284 9.95502 28.5293C11.3823 27.7302 12.4622 26.4299 12.9858 24.8802C13.5094 23.3305 13.4394 21.6417 12.7893 20.1407L22.5079 12.582C22.6959 13.2167 23.4773 15.7607 23.6493 16.346C22.0556 16.7621 20.6726 17.7542 19.7677 19.1304C18.8628 20.5067 18.5001 22.1696 18.7497 23.7977C18.9992 25.4258 19.8434 26.9036 21.1191 27.9456C22.3947 28.9876 24.0113 29.5198 25.6565 29.4394C27.3017 29.359 28.8587 28.6717 30.0266 27.5103C31.1946 26.3488 31.8906 24.7957 31.9802 23.151C32.0699 21.5063 31.5467 19.8868 30.5119 18.6053C29.4771 17.3238 28.004 16.4714 26.3773 16.2127V16.2087ZM6.66662 26.77C5.87549 26.77 5.10213 26.5354 4.44433 26.0959C3.78654 25.6564 3.27385 25.0317 2.9711 24.3008C2.66835 23.5698 2.58913 22.7656 2.74347 21.9897C2.89782 21.2137 3.27878 20.501 3.83819 19.9416C4.3976 19.3822 5.11033 19.0012 5.88625 18.8469C6.66218 18.6925 7.46644 18.7718 8.19735 19.0745C8.92825 19.3773 9.55297 19.8899 9.99249 20.5477C10.432 21.2055 10.6666 21.9789 10.6666 22.77C10.6666 23.8309 10.2452 24.8483 9.49504 25.5984C8.7449 26.3486 7.72748 26.77 6.66662 26.77ZM25.3333 26.77C24.5422 26.77 23.7688 26.5354 23.111 26.0959C22.4532 25.6564 21.9405 25.0317 21.6378 24.3008C21.335 23.5698 21.2558 22.7656 21.4101 21.9897C21.5645 21.2137 21.9454 20.501 22.5049 19.9416C23.0643 19.3822 23.777 19.0012 24.5529 18.8469C25.3288 18.6925 26.1331 18.7718 26.864 19.0745C27.5949 19.3773 28.2196 19.8899 28.6592 20.5477C29.0987 21.2055 29.3333 21.9789 29.3333 22.77C29.3333 23.8309 28.9119 24.8483 28.1617 25.5984C27.4116 26.3486 26.3941 26.77 25.3333 26.77Z" fill="#202020"/>
</svg>
