<svg xmlns="http://www.w3.org/2000/svg" width="20" height="21" viewBox="0 0 20 21" fill="none">
    <g clip-path="url(#clip0_379_10882)">
        <path d="M15.8333 1.76994H15V0.936605C15 0.715591 14.9122 0.503629 14.7559 0.347349C14.5996 0.191069 14.3877 0.103271 14.1667 0.103271C13.9457 0.103271 13.7337 0.191069 13.5774 0.347349C13.4211 0.503629 13.3333 0.715591 13.3333 0.936605V1.76994H6.66667V0.936605C6.66667 0.715591 6.57887 0.503629 6.42259 0.347349C6.26631 0.191069 6.05435 0.103271 5.83333 0.103271C5.61232 0.103271 5.40036 0.191069 5.24408 0.347349C5.0878 0.503629 5 0.715591 5 0.936605V1.76994H4.16667C3.062 1.77126 2.00296 2.21067 1.22185 2.99179C0.440735 3.7729 0.00132321 4.83194 0 5.9366L0 15.9366C0.00132321 17.0413 0.440735 18.1003 1.22185 18.8814C2.00296 19.6625 3.062 20.1019 4.16667 20.1033H15.8333C16.938 20.1019 17.997 19.6625 18.7782 18.8814C19.5593 18.1003 19.9987 17.0413 20 15.9366V5.9366C19.9987 4.83194 19.5593 3.7729 18.7782 2.99179C17.997 2.21067 16.938 1.77126 15.8333 1.76994ZM1.66667 5.9366C1.66667 5.27356 1.93006 4.63768 2.3989 4.16884C2.86774 3.7 3.50363 3.4366 4.16667 3.4366H15.8333C16.4964 3.4366 17.1323 3.7 17.6011 4.16884C18.0699 4.63768 18.3333 5.27356 18.3333 5.9366V6.76994H1.66667V5.9366ZM15.8333 18.4366H4.16667C3.50363 18.4366 2.86774 18.1732 2.3989 17.7044C1.93006 17.2355 1.66667 16.5996 1.66667 15.9366V8.4366H18.3333V15.9366C18.3333 16.5996 18.0699 17.2355 17.6011 17.7044C17.1323 18.1732 16.4964 18.4366 15.8333 18.4366Z" fill="#202020"/>
        <path d="M10 13.8533C10.6904 13.8533 11.25 13.2936 11.25 12.6033C11.25 11.9129 10.6904 11.3533 10 11.3533C9.30964 11.3533 8.75 11.9129 8.75 12.6033C8.75 13.2936 9.30964 13.8533 10 13.8533Z" fill="#202020"/>
        <path d="M5.83301 13.8533C6.52336 13.8533 7.08301 13.2936 7.08301 12.6033C7.08301 11.9129 6.52336 11.3533 5.83301 11.3533C5.14265 11.3533 4.58301 11.9129 4.58301 12.6033C4.58301 13.2936 5.14265 13.8533 5.83301 13.8533Z" fill="#202020"/>
        <path d="M14.167 13.8533C14.8573 13.8533 15.417 13.2936 15.417 12.6033C15.417 11.9129 14.8573 11.3533 14.167 11.3533C13.4766 11.3533 12.917 11.9129 12.917 12.6033C12.917 13.2936 13.4766 13.8533 14.167 13.8533Z" fill="#202020"/>
    </g>
    <defs>
        <clipPath id="clip0_379_10882">
            <rect width="20" height="20" fill="white" transform="translate(0 0.103271)"/>
        </clipPath>
    </defs>
</svg>