<svg width="20" height="21" viewBox="0 0 20 21" fill="none" xmlns="http://www.w3.org/2000/svg">
    <g clip-path="url(#clip0_440_3616)">
        <path d="M14.3941 8.68994C14.7908 9.07827 15.3125 9.27244 15.8333 9.27244C16.3541 9.27244 16.8758 9.07827 17.2725 8.68994L18.78 7.21577C20.4041 5.59077 20.4041 2.94744 18.78 1.32327C17.9925 0.536605 16.9458 0.103271 15.8333 0.103271C14.7208 0.103271 13.6741 0.536605 12.8866 1.32327C11.2625 2.94827 11.2625 5.59161 12.8933 7.22244L14.3941 8.68994ZM14.065 2.50244C14.5375 2.02994 15.165 1.76994 15.8333 1.76994C16.5016 1.76994 17.1291 2.02994 17.6016 2.50244C18.5758 3.47744 18.5758 5.06327 17.6083 6.0316L16.1075 7.4991C15.9558 7.64744 15.7108 7.64744 15.56 7.4991L14.0658 6.03827C13.0916 5.06327 13.0908 3.47744 14.065 2.50244ZM4.16665 10.9366C3.05415 10.9366 2.00748 11.3699 1.21998 12.1566C-0.404188 13.7816 -0.404188 16.4249 1.22665 18.0558L2.72748 19.5233C3.12415 19.9116 3.64581 20.1058 4.16665 20.1058C4.68748 20.1058 5.20915 19.9116 5.60581 19.5233L7.11248 18.0491C8.73748 16.4241 8.73748 13.7808 7.11248 12.1566C6.32581 11.3699 5.27915 10.9366 4.16665 10.9366ZM5.94081 16.8649L4.44081 18.3324C4.28915 18.4808 4.04415 18.4808 3.89331 18.3324L2.39915 16.8716C1.42498 15.8966 1.42498 14.3108 2.39915 13.3358C2.87165 12.8633 3.49915 12.6033 4.16748 12.6033C4.83581 12.6033 5.46331 12.8633 5.93498 13.3349C6.90998 14.3099 6.90998 15.8958 5.94165 16.8641L5.94081 16.8649ZM9.46748 9.55161C9.64415 9.16494 9.89081 8.81911 10.2 8.52411C10.5316 8.20744 11.0608 8.2191 11.3783 8.55244C11.6958 8.88494 11.6833 9.41244 11.35 9.73077C11.195 9.87827 11.0725 10.0516 10.9841 10.2449C10.8441 10.5516 10.5416 10.7324 10.2258 10.7324C10.11 10.7324 9.99248 10.7083 9.87998 10.6566C9.46165 10.4658 9.27665 9.97077 9.46831 9.55244L9.46748 9.55161ZM11.6666 19.2699C11.6666 19.7299 11.2933 20.1033 10.8333 20.1033H9.16665C8.70665 20.1033 8.33331 19.7299 8.33331 19.2699C8.33331 18.8099 8.70665 18.4366 9.16665 18.4366H10.8333C11.2933 18.4366 11.6666 18.8099 11.6666 19.2699ZM17.4616 14.5333C17.3458 14.5333 17.2275 14.5091 17.115 14.4574C16.8433 14.3333 16.5516 14.2699 16.2483 14.2699H15.8325C15.3725 14.2699 14.9991 13.8966 14.9991 13.4366C14.9991 12.9766 15.3725 12.6033 15.8325 12.6033H16.2491C16.7933 12.6033 17.3175 12.7174 17.8083 12.9424C18.2266 13.1333 18.4108 13.6283 18.2191 14.0466C18.0791 14.3524 17.7766 14.5333 17.4608 14.5333H17.4616ZM13.3333 13.4366C13.3333 13.8966 12.9608 14.2699 12.5 14.2699C11.755 14.2699 11.0233 14.0166 10.4391 13.5566C10.0775 13.2716 10.015 12.7474 10.3 12.3866C10.585 12.0249 11.11 11.9624 11.47 12.2474C11.7658 12.4799 12.1216 12.6033 12.4991 12.6033C12.9591 12.6033 13.3325 12.9766 13.3325 13.4366H13.3333ZM20 16.3533C20 17.0766 19.7933 17.7774 19.4041 18.3816C19.245 18.6283 18.9766 18.7633 18.7033 18.7633C18.5483 18.7633 18.3925 18.7208 18.2525 18.6299C17.8658 18.3808 17.7541 17.8649 18.0041 17.4783C18.22 17.1441 18.3341 16.7541 18.3341 16.3524C18.3341 15.8924 18.7075 15.5191 19.1675 15.5191C19.6283 15.5191 20.0008 15.8924 20.0008 16.3524L20 16.3533ZM16.6666 19.2699C16.6666 19.7299 16.2933 20.1033 15.8333 20.1033H14.1666C13.7066 20.1033 13.3333 19.7299 13.3333 19.2699C13.3333 18.8099 13.7066 18.4366 14.1666 18.4366H15.8333C16.2933 18.4366 16.6666 18.8099 16.6666 19.2699ZM14.5833 4.26994C14.5833 3.57994 15.1433 3.01994 15.8333 3.01994C16.5233 3.01994 17.0833 3.57994 17.0833 4.26994C17.0833 4.95994 16.5233 5.51994 15.8333 5.51994C15.1433 5.51994 14.5833 4.95994 14.5833 4.26994ZM5.41665 15.1033C5.41665 15.7933 4.85665 16.3533 4.16665 16.3533C3.47665 16.3533 2.91665 15.7933 2.91665 15.1033C2.91665 14.4133 3.47665 13.8533 4.16665 13.8533C4.85665 13.8533 5.41665 14.4133 5.41665 15.1033Z" fill="#202020"/>
    </g>
    <defs>
        <clipPath id="clip0_440_3616">
            <rect width="20" height="20" fill="white" transform="translate(0 0.103271)"/>
        </clipPath>
    </defs>
</svg>
