<svg width="206" height="207" viewBox="0 0 206 207" fill="none" xmlns="http://www.w3.org/2000/svg">
<circle cx="103" cy="103.103" r="64.1543" fill="#3CD500" fill-opacity="0.235294"/>
<circle cx="103" cy="103.103" r="80.6343" fill="#3CD500" fill-opacity="0.235294"/>
<circle cx="103" cy="103.103" r="103" fill="#2FA300" fill-opacity="0.0431373"/>
<circle cx="103" cy="103.103" r="41.2" fill="#3CD500" fill-opacity="0.235294"/>
<mask id="mask0_229_12282" style="mask-type:alpha" maskUnits="userSpaceOnUse" x="73" y="76" width="60" height="61">
<rect x="73.4507" y="76.9312" width="59.0984" height="59.0984" fill="#D9D9D9"/>
</mask>
<g mask="url(#mask0_229_12282)">
<path d="M98.0752 110.42L112.604 95.8918C113.055 95.4403 113.63 95.2146 114.327 95.2146C115.025 95.2146 115.599 95.4403 116.051 95.8918C116.502 96.3432 116.728 96.9178 116.728 97.6155C116.728 98.3132 116.502 98.8877 116.051 99.3392L99.7989 115.591C99.3064 116.084 98.7318 116.33 98.0752 116.33C97.4185 116.33 96.844 116.084 96.3515 115.591L89.9491 109.189C89.4977 108.737 89.272 108.163 89.272 107.465C89.272 106.768 89.4977 106.193 89.9491 105.741C90.4006 105.29 90.9752 105.064 91.6728 105.064C92.3705 105.064 92.9451 105.29 93.3965 105.741L98.0752 110.42Z" fill="#202020"/>
</g>
</svg>
