<svg width="50" height="27" viewBox="0 0 50 27" fill="none" xmlns="http://www.w3.org/2000/svg">
    <path fill-rule="evenodd" clip-rule="evenodd" d="M8.55053 26.0097L11.3814 26.7678C14.9842 27.3567 17.5655 26.5601 20.2161 25.1552C22.0581 24.1792 24.782 21.5581 25.4918 19.5484L23.1088 19.5514C22.1618 20.8772 21.1231 22.0673 19.8895 22.8752C17.0104 24.7605 14.3055 25.2228 10.9898 24.5484C9.02283 23.8816 9.13888 24.0895 7.36239 22.9101C2.05121 19.3842 0.577478 11.7721 4.79691 6.65778C5.89743 5.32378 7.19077 4.10566 8.81474 3.41747C14.8481 0.861345 20.9578 3.19966 23.6786 8.52496L25.9282 8.52743C25.673 6.90328 23.0724 3.91839 21.7433 2.86883C20.1224 1.58905 17.2792 0.226612 14.4812 0.135357C11.9961 0.117796 10.4973 0.12353 8.10097 1.22692C5.33963 2.49811 3.50949 4.0797 1.95863 6.74025C-0.705926 11.3115 -0.340168 16.5637 2.17454 20.6546C3.45261 22.7337 5.82299 24.9502 8.55053 26.0097Z" fill="#81E54D"/>
    <path fill-rule="evenodd" clip-rule="evenodd" d="M27.6921 11.0983C31.629 9.62114 33.4532 15.7423 29.8431 17.0047C25.8677 18.395 23.983 12.3794 27.6921 11.0983ZM32.6574 11.3682C30.8379 8.87224 26.7124 8.6928 24.9815 11.1674C23.5565 13.2047 23.8808 16.0689 25.424 17.452C28.8514 20.5235 35.613 17.4371 32.6574 11.3682Z" fill="#EDEDED"/>
    <path fill-rule="evenodd" clip-rule="evenodd" d="M36.3068 10.9829C37.7769 10.8146 39.8395 10.7329 39.8029 12.4271C39.7658 14.1387 37.808 14.0186 36.3056 13.8382L36.3068 10.9829ZM34.7002 10.2875L34.6862 18.4411L36.3098 18.4612L36.3146 15.2556L38.0414 15.215C39.0811 17.0073 39.4512 18.5305 39.457 18.474C39.457 18.474 41.1846 18.4478 41.3159 18.4539L39.5812 14.9918C40.8081 14.6213 41.5152 13.6513 41.4299 12.1161C41.2613 9.08732 36.8359 9.30741 34.6958 9.68406L34.7002 10.2875Z" fill="#EDEDED"/>
    <path fill-rule="evenodd" clip-rule="evenodd" d="M44.3075 10.9347C45.9097 10.9528 47.9365 10.6621 47.8441 12.5776C47.7613 14.2951 45.8294 14.0064 44.318 14.0122L44.3075 10.9347ZM42.7275 17.2807L42.7216 18.463L44.3117 18.432L44.3049 15.3399C46.5137 15.3515 49.5267 15.6293 49.4612 12.4481C49.3913 9.06237 45.6608 9.59726 42.7275 9.60394V17.2807Z" fill="#EDEDED"/>
    <path fill-rule="evenodd" clip-rule="evenodd" d="M8.78268 18.4597L14.771 18.454L14.7666 17.1248L10.3771 17.117L10.3626 14.696L13.6471 14.6954L13.6342 13.3591L10.3994 13.3629L10.3574 10.9398L14.7265 10.9366L14.7393 9.59937L8.8684 9.60184L8.78268 18.4597Z" fill="#EDEDED"/>
    <path fill-rule="evenodd" clip-rule="evenodd" d="M23.3362 17.8197L23.335 16.2663C22.1438 16.8384 21.1131 17.5068 19.3387 17.0633C15.9289 16.2112 16.1864 10.2425 21.2332 10.9695C22.1167 11.0966 22.71 11.4423 23.2489 11.7062L23.2321 10.3298C21.854 9.38501 19.6837 9.06144 17.9039 9.9054C14.0398 11.7378 14.5042 18.9872 20.7552 18.6279C22.1778 18.5462 22.4327 18.1022 23.3362 17.8197Z" fill="#EDEDED"/>
</svg>
