<svg width="12" height="17" viewBox="0 0 12 17" fill="none" xmlns="http://www.w3.org/2000/svg">
<path fill-rule="evenodd" clip-rule="evenodd" d="M6.46057 0.400383C6.40746 0.328319 6.33817 0.269741 6.25826 0.229371C6.17836 0.189001 6.0901 0.167969 6.00058 0.167969C5.91105 0.167969 5.82279 0.189001 5.74288 0.229371C5.66298 0.269741 5.59368 0.328319 5.54057 0.400383L0.125717 7.75353C0.0534093 7.85171 0.0144043 7.97045 0.0144043 8.09238C0.0144043 8.21432 0.0534093 8.33306 0.125717 8.43124L5.54057 15.7832C5.59368 15.8553 5.66298 15.9139 5.74288 15.9543C5.82279 15.9946 5.91105 16.0157 6.00058 16.0157C6.0901 16.0157 6.17836 15.9946 6.25826 15.9543C6.33817 15.9139 6.40746 15.8553 6.46057 15.7832L11.8743 8.43124C11.9466 8.33306 11.9856 8.21432 11.9856 8.09238C11.9856 7.97045 11.9466 7.85171 11.8743 7.75353L6.46057 0.401526V0.400383Z" fill="#77DA40"/>
<path fill-rule="evenodd" clip-rule="evenodd" d="M11.984 8.04602L6.10173 9.97745C5.98474 10.0159 5.85847 10.0155 5.74173 9.97631L0.0160135 8.05173C0.00632263 8.18723 0.0452192 8.32175 0.125728 8.43116L5.54058 15.7832C5.5937 15.8552 5.66299 15.9138 5.7429 15.9542C5.8228 15.9945 5.91106 16.0156 6.00059 16.0156C6.09011 16.0156 6.17837 15.9945 6.25828 15.9542C6.33818 15.9138 6.40747 15.8552 6.46058 15.7832L11.8743 8.43116C11.9559 8.32052 11.9948 8.18419 11.984 8.04716V8.04602Z" fill="#47792E"/>
</svg>
