<svg width="24" height="25" viewBox="0 0 24 25" fill="none" xmlns="http://www.w3.org/2000/svg">
    <g clip-path="url(#clip0_440_3633)">
        <path d="M13 11.1035C13 10.3655 12.595 9.72752 12 9.38052V5.10352C12 4.55152 11.552 4.10352 11 4.10352C10.448 4.10352 10 4.55152 10 5.10352V9.38052C9.405 9.72652 9 10.3645 9 11.1035C9 12.2085 9.895 13.1035 11 13.1035C12.105 13.1035 13 12.2085 13 11.1035Z" fill="#202020"/>
        <path d="M18 12.1016C14.686 12.1016 12 14.7876 12 18.1016C12 21.4156 14.686 24.1016 18 24.1016C21.314 24.1016 24 21.4156 24 18.1016C24 14.7876 21.314 12.1016 18 12.1016ZM20.731 19.5936L18.907 22.2326C18.596 22.6826 17.981 22.7986 17.528 22.4926C17.066 22.1816 16.948 21.5516 17.266 21.0946L18.651 19.1036H16.616C16.107 19.1036 15.622 18.8596 15.319 18.4516C15.016 18.0426 14.923 17.5076 15.07 17.0206L16.995 14.0106C17.3 13.5456 17.925 13.4176 18.388 13.7266C18.845 14.0316 18.971 14.6466 18.671 15.1066L17.368 17.1046H19.397C19.989 17.1046 20.53 17.4286 20.81 17.9506C21.09 18.4726 21.06 19.1016 20.733 19.5956L20.731 19.5936Z" fill="#202020"/>
        <path d="M6.70999 16.7104L5.77599 17.5174C5.45299 17.7954 4.96399 17.7844 4.66599 17.4884C2.66099 15.5024 1.71599 12.7444 2.07499 9.92241C2.58799 5.88041 5.90299 2.61741 9.95399 2.16241C15.054 1.59841 19.45 5.23541 19.953 10.1824C20.009 10.7314 20.496 11.1284 21.049 11.0764C21.598 11.0204 21.999 10.5294 21.943 9.98041C21.329 3.93441 15.899 -0.514594 9.73199 0.174406C4.77399 0.730406 0.718994 4.72441 0.0909937 9.67041C-0.346006 13.1154 0.808994 16.4824 3.25899 18.9094C3.79999 19.4454 4.51599 19.7164 5.23499 19.7164C5.89299 19.7164 6.55399 19.4884 7.08399 19.0304L8.01699 18.2234C8.43499 17.8624 8.48099 17.2304 8.11999 16.8134C7.75799 16.3954 7.12699 16.3494 6.70999 16.7104Z" fill="#202020"/>
    </g>
    <defs>
        <clipPath id="clip0_440_3633">
            <rect width="24" height="24" fill="white" transform="translate(0 0.103516)"/>
        </clipPath>
    </defs>
</svg>
