<svg xmlns="http://www.w3.org/2000/svg" width="20" height="21" viewBox="0 0 20 21" fill="none">
    <g clip-path="url(#clip0_229_12295)">
        <path d="M7.5 20.1032H0.833333C0.61232 20.1032 0.400358 20.0154 0.244078 19.8591C0.0877974 19.7028 0 19.4909 0 19.2699C0 19.0488 0.0877974 18.8369 0.244078 18.6806C0.400358 18.5243 0.61232 18.4365 0.833333 18.4365H7.5C7.72101 18.4365 7.93297 18.5243 8.08926 18.6806C8.24554 18.8369 8.33333 19.0488 8.33333 19.2699C8.33333 19.4909 8.24554 19.7028 8.08926 19.8591C7.93297 20.0154 7.72101 20.1032 7.5 20.1032Z" fill="#202020"/>
        <path d="M5.83333 16.7699H0.833333C0.61232 16.7699 0.400358 16.6821 0.244078 16.5259C0.0877974 16.3696 0 16.1576 0 15.9366C0 15.7156 0.0877974 15.5036 0.244078 15.3473C0.400358 15.1911 0.61232 15.1033 0.833333 15.1033H5.83333C6.05435 15.1033 6.26631 15.1911 6.42259 15.3473C6.57887 15.5036 6.66667 15.7156 6.66667 15.9366C6.66667 16.1576 6.57887 16.3696 6.42259 16.5259C6.26631 16.6821 6.05435 16.7699 5.83333 16.7699Z" fill="#202020"/>
        <path d="M4.16667 13.4367H0.833333C0.61232 13.4367 0.400358 13.3489 0.244078 13.1926C0.0877974 13.0363 0 12.8244 0 12.6034C0 12.3823 0.0877974 12.1704 0.244078 12.0141C0.400358 11.8578 0.61232 11.77 0.833333 11.77H4.16667C4.38768 11.77 4.59964 11.8578 4.75592 12.0141C4.9122 12.1704 5 12.3823 5 12.6034C5 12.8244 4.9122 13.0363 4.75592 13.1926C4.59964 13.3489 4.38768 13.4367 4.16667 13.4367Z" fill="#202020"/>
        <path d="M10.8335 20.0657C10.6125 20.0756 10.3966 19.9972 10.2334 19.8479C10.0701 19.6986 9.9729 19.4905 9.96306 19.2695C9.95323 19.0485 10.0316 18.8326 10.1809 18.6694C10.3302 18.5061 10.5383 18.4089 10.7593 18.3991C12.3364 18.2548 13.8396 17.6641 15.0931 16.6962C16.3465 15.7284 17.2982 14.4234 17.8367 12.9341C18.3753 11.4448 18.4783 9.83295 18.1337 8.28725C17.7891 6.74156 17.0113 5.32604 15.8912 4.2065C14.7711 3.08696 13.3553 2.30974 11.8094 1.96589C10.2636 1.62203 8.65173 1.72577 7.16271 2.26496C5.67369 2.80415 4.36913 3.75646 3.40184 5.01035C2.43454 6.26424 1.84455 7.7678 1.70098 9.34491C1.68109 9.56504 1.57457 9.76825 1.40485 9.90984C1.23513 10.0514 1.01611 10.1198 0.795982 10.0999C0.575852 10.08 0.37264 9.9735 0.23105 9.80378C0.08946 9.63406 0.0210904 9.41504 0.0409816 9.19491C0.273389 6.631 1.48565 4.25549 3.42542 2.56288C5.36519 0.870271 7.88302 -0.00903466 10.4548 0.108005C13.0265 0.225045 15.4541 1.32941 17.2321 3.19122C19.0101 5.05303 20.0016 7.52882 20.0001 10.1032C20.0129 12.6019 19.0847 15.0137 17.4001 16.8591C15.7154 18.7044 13.3979 19.848 10.9085 20.0624C10.8835 20.0649 10.8576 20.0657 10.8335 20.0657Z" fill="#202020"/>
        <path d="M9.99984 5.10327C9.77882 5.10327 9.56686 5.19107 9.41058 5.34735C9.2543 5.50363 9.1665 5.71559 9.1665 5.9366V10.1033C9.16655 10.3243 9.25438 10.5362 9.41067 10.6924L11.9107 13.1924C12.0678 13.3442 12.2783 13.4282 12.4968 13.4263C12.7153 13.4244 12.9243 13.3368 13.0789 13.1823C13.2334 13.0278 13.321 12.8188 13.3229 12.6003C13.3248 12.3818 13.2408 12.1713 13.089 12.0141L10.8332 9.75827V5.9366C10.8332 5.71559 10.7454 5.50363 10.5891 5.34735C10.4328 5.19107 10.2209 5.10327 9.99984 5.10327Z" fill="#202020"/>
    </g>
    <defs>
        <clipPath id="clip0_229_12295">
            <rect width="20" height="20" fill="white" transform="translate(0 0.103271)"/>
        </clipPath>
    </defs>
</svg>