<svg width="32" height="33" viewBox="0 0 32 33" fill="none" xmlns="http://www.w3.org/2000/svg">
    <g clip-path="url(#clip0_440_7838)">
        <path d="M19.3333 6.76994C19.9926 6.76994 20.637 6.57444 21.1852 6.20817C21.7334 5.8419 22.1606 5.32131 22.4129 4.71222C22.6652 4.10313 22.7312 3.43291 22.6026 2.78631C22.474 2.1397 22.1565 1.54576 21.6903 1.07958C21.2241 0.613409 20.6302 0.295939 19.9836 0.167322C19.337 0.0387046 18.6668 0.104716 18.0577 0.357008C17.4486 0.6093 16.928 1.03654 16.5617 1.58471C16.1955 2.13287 16 2.77734 16 3.43661C16 4.32066 16.3511 5.16851 16.9763 5.79363C17.6014 6.41875 18.4492 6.76994 19.3333 6.76994ZM29.3333 14.7699H25.5066C25.2771 14.769 25.0516 14.7092 24.8517 14.5962C24.6519 14.4832 24.4844 14.3209 24.3653 14.1246L21.9066 10.0406C21.5495 9.45098 21.0467 8.96309 20.4466 8.62382C19.8466 8.28455 19.1693 8.1053 18.48 8.10327H9.64796C8.90467 8.10068 8.17553 8.30642 7.54323 8.69716C6.91093 9.0879 6.40078 9.648 6.07063 10.3139L4.13996 14.1806C4.06169 14.3373 4.01506 14.5079 4.00272 14.6826C3.99038 14.8574 4.01258 15.0328 4.06804 15.199C4.18006 15.5346 4.4208 15.8119 4.73729 15.9699C5.05378 16.128 5.42011 16.1539 5.75567 16.0419C5.92183 15.9864 6.07543 15.8987 6.20771 15.7839C6.33999 15.6691 6.44836 15.5293 6.52663 15.3726L8.45596 11.5073C8.56587 11.2852 8.73582 11.0985 8.94651 10.9681C9.15721 10.8378 9.40022 10.7691 9.64796 10.7699H12.6053L10.2666 16.4673C9.90989 17.3374 9.87113 18.3054 10.1571 19.2012C10.4432 20.0971 11.0357 20.8635 11.8306 21.3659L17.3186 24.8326V30.7699C17.3186 31.1255 17.4599 31.4665 17.7113 31.7179C17.9627 31.9694 18.3037 32.1106 18.6593 32.1106C19.0149 32.1106 19.3559 31.9694 19.6073 31.7179C19.8587 31.4665 20 31.1255 20 30.7699V24.1033C19.9973 23.8774 19.938 23.6559 19.8273 23.459C19.7166 23.2621 19.5582 23.0962 19.3666 22.9766L16.6533 21.2606L20.2533 12.4726L22.076 15.4993C22.4335 16.0894 22.937 16.5776 23.5378 16.9169C24.1386 17.2562 24.8166 17.4351 25.5066 17.4366H29.3333C29.6869 17.4366 30.0261 17.2961 30.2761 17.0461C30.5262 16.796 30.6666 16.4569 30.6666 16.1033C30.6666 15.7497 30.5262 15.4105 30.2761 15.1605C30.0261 14.9104 29.6869 14.7699 29.3333 14.7699ZM11.2426 24.2553C10.9477 24.9991 10.4356 25.6368 9.773 26.0853C9.11041 26.5339 8.32809 26.7724 7.52796 26.7699H3.99996C3.64634 26.7699 3.3072 26.6295 3.05715 26.3794C2.8071 26.1294 2.66663 25.7902 2.66663 25.4366C2.66663 25.083 2.8071 24.7438 3.05715 24.4938C3.3072 24.2438 3.64634 24.1033 3.99996 24.1033H7.52796C7.79464 24.1042 8.05539 24.0247 8.27614 23.875C8.49689 23.7254 8.66737 23.5127 8.76529 23.2646C8.89666 22.9361 9.15316 22.6732 9.47834 22.5338C9.80353 22.3944 10.1708 22.3899 10.4993 22.5213C10.8278 22.6526 11.0907 22.9091 11.2301 23.2343C11.3695 23.5595 11.374 23.9268 11.2426 24.2553Z" fill="#202020"/>
    </g>
    <defs>
        <clipPath id="clip0_440_7838">
            <rect width="32" height="32" fill="white" transform="translate(0 0.103271)"/>
        </clipPath>
    </defs>
</svg>
